<?xml version="1.0" standalone="no"?>
<!DOCTYPE svg PUBLIC "-//W3C//DTD SVG 20010904//EN"
 "http://www.w3.org/TR/2001/REC-SVG-20010904/DTD/svg10.dtd">
<svg version="1.0" xmlns="http://www.w3.org/2000/svg"
 width="225.000000pt" height="225.000000pt" viewBox="0 0 225.000000 225.000000"
 preserveAspectRatio="xMidYMid meet">

<g transform="translate(0.000000,225.000000) scale(0.100000,-0.100000)"
fill="#000000" stroke="none">
<path d="M768 2027 c-167 -47 -250 -235 -174 -390 48 -98 141 -157 248 -157
l49 0 30 -67 30 -66 -30 -31 c-64 -66 -91 -196 -59 -287 11 -33 11 -34 -48
-87 -32 -30 -83 -74 -112 -99 l-52 -45 -52 22 c-43 18 -65 22 -123 18 -107 -7
-184 -57 -233 -152 -34 -67 -36 -168 -5 -237 26 -58 84 -116 142 -142 69 -31
170 -29 237 6 124 63 185 213 140 339 l-14 38 92 82 c50 45 100 90 112 100 20
18 22 18 65 -2 65 -29 168 -27 237 5 l53 25 100 -78 c71 -55 97 -81 93 -92
-16 -36 -16 -139 0 -188 64 -191 317 -250 461 -107 55 56 79 116 79 200 0 56
-6 80 -26 121 -49 95 -126 145 -234 152 -62 4 -79 1 -132 -23 l-60 -27 -101
77 c-55 43 -98 82 -94 88 3 5 9 35 12 66 l6 56 55 19 56 19 47 -45 c139 -135
374 -89 453 89 25 56 23 166 -3 223 -45 99 -143 162 -253 163 -146 1 -261
-100 -279 -246 l-6 -52 -53 -19 -52 -19 -46 42 c-61 57 -116 81 -187 81 l-58
0 -29 65 -29 65 38 51 c46 61 61 107 61 185 0 104 -70 209 -166 249 -53 22
-132 27 -186 12z m138 -143 c46 -22 77 -75 76 -131 -1 -79 -59 -133 -144 -133
-38 0 -54 6 -82 30 -126 111 -2 306 150 234z m932 -433 c113 -80 56 -254 -83
-254 -79 0 -135 60 -135 145 0 109 128 173 218 109z m-671 -191 c25 0 83 -62
93 -99 19 -72 -26 -150 -100 -171 -98 -28 -197 70 -170 170 17 62 92 116 145
105 11 -3 25 -5 32 -5z m663 -507 c60 -42 81 -97 61 -163 -32 -106 -165 -130
-241 -44 -53 60 -37 162 33 204 40 25 114 26 147 3z m-1263 -73 c42 -25 63
-68 63 -126 0 -40 -5 -51 -38 -85 -21 -21 -50 -41 -65 -44 -69 -18 -148 27
-168 95 -18 58 -5 103 41 144 34 31 47 36 88 36 29 0 59 -7 79 -20z"/>
</g>
</svg>
